<svg 
xmlns="http://www.w3.org/2000/svg" 
version="1.1" 
xmlns:xlink="http://www.w3.org/1999/xlink" 
xmlns:svgjs="http://svgjs.dev/svgjs"
width="1000"
height="2205"
viewBox="0 0 1000 2205"
>
<g transform="matrix(1,0,0,1,-0.530053460317049,0.8927125506072571)"><svg viewBox="0 0 112 247" data-background-color="#333333" preserveAspectRatio="xMidYMid meet" height="2205" width="1000" xmlns="http://www.w3.org/2000/svg" xmlns:xlink="http://www.w3.org/1999/xlink"><g id="tight-bounds" transform="matrix(1,0,0,1,0.05936598755550904,-0.09999999999999432)"><svg viewBox="0 0 111.88126588235295 247.2" height="247.2" width="111.88126588235295"><g><svg></svg></g><g><svg viewBox="0 0 111.88126588235295 247.2" height="247.2" width="111.88126588235295"><g transform="matrix(1,0,0,1,0,47.215199999999996)"><svg viewBox="0 0 111.88126588235295 152.7696" height="152.7696" width="111.88126588235295"><g><svg viewBox="0 0 111.88126588235295 152.7696" height="152.7696" width="111.88126588235295"><g><svg viewBox="0 0 111.88126588235295 152.7696" height="152.7696" width="111.88126588235295"><g><svg viewBox="0 0 111.88126588235295 152.7696" height="152.7696" width="111.88126588235295"><g id="textblocktransform"><svg viewBox="0 0 111.88126588235295 152.7696" height="152.7696" width="111.88126588235295" id="textblock"><g><svg viewBox="0 0 111.88126588235295 152.7696" height="152.7696" width="111.88126588235295"><g transform="matrix(1,0,0,1,0,0)"><svg width="111.88126588235295" viewBox="2.5999999046325684 -33.400001525878906 24.899999618530273 34" height="152.7696" data-palette-color="#7fc37e"><path d="M17.4 0.6L17.4 0.6Q14.15 0.6 11.43-0.55 8.7-1.7 6.75-3.88 4.8-6.05 3.7-9.22 2.6-12.4 2.6-16.4L2.6-16.4Q2.6-20.35 3.73-23.5 4.85-26.65 6.85-28.85 8.85-31.05 11.63-32.23 14.4-33.4 17.65-33.4L17.65-33.4Q19.35-33.4 20.78-33.05 22.2-32.7 23.38-32.13 24.55-31.55 25.48-30.83 26.4-30.1 27.1-29.35L27.1-29.35 24.8-26.65Q23.55-27.95 21.9-28.85 20.25-29.75 17.75-29.75L17.75-29.75Q15.25-29.75 13.25-28.83 11.25-27.9 9.85-26.18 8.45-24.45 7.68-22 6.9-19.55 6.9-16.5L6.9-16.5Q6.9-13.4 7.63-10.93 8.35-8.45 9.73-6.7 11.1-4.95 13.13-4 15.15-3.05 17.8-3.05L17.8-3.05Q19.55-3.05 21.13-3.58 22.7-4.1 23.7-5L23.7-5 23.7-13.55 16.75-13.55 16.75-17 27.5-17 27.5-3.2Q25.9-1.55 23.3-0.48 20.7 0.6 17.4 0.6Z" opacity="1" transform="matrix(1,0,0,1,0,0)" fill="#7fc37e" class="undefined-text-0" data-fill-palette-color="primary" id="text-0"></path></svg></g></svg></g></svg></g></svg></g><g></g></svg></g></svg></g></svg></g><path d="M0 41.215L0 1 111.881 1 111.881 41.215 98.104 41.215 98.104 14.777 13.777 14.777 13.777 41.215 0 41.215M0 205.985L0 246.2 111.881 246.2 111.881 205.985 98.104 205.985 98.104 232.423 13.777 232.423 13.777 205.985 0 205.985" fill="#7fc37e" stroke="transparent" data-fill-palette-color="primary"></path></svg></g><defs></defs></svg><rect width="111.88126588235295" height="247.2" fill="none" stroke="none" visibility="hidden"></rect></g></svg></g></svg>